<svg width="30" height="30" viewBox="0 0 30 30" fill="none" xmlns="http://www.w3.org/2000/svg">
<rect x="0.5" y="0.5" width="29" height="29" rx="14.5" fill="#D0D0D0" fill-opacity="0.4"/>
<rect x="0.5" y="0.5" width="29" height="29" rx="14.5" stroke="#616161"/>
<path d="M3 17.5791C3 17.5791 5.29999 21.5611 8.53193 19.6931L9.2799 19.2623L8.84791 18.5155C6.97992 15.2803 3 17.5791 3 17.5791Z" stroke="#616161" stroke-width="1.40625" stroke-miterlimit="10" stroke-linecap="round" stroke-linejoin="round"/>
<path d="M26.9994 17.5791C26.9994 17.5791 24.6994 21.5611 21.4675 19.6931L20.7195 19.2623L21.1515 18.5155C23.0195 15.2803 26.9994 17.5791 26.9994 17.5791Z" stroke="#616161" stroke-width="1.40625" stroke-miterlimit="10" stroke-linecap="round" stroke-linejoin="round"/>
<path d="M6.06431 7.26367C6.06431 7.26367 3.76836 11.2452 7.0003 13.1128L7.74828 13.544L8.18027 12.7972C10.0482 9.56246 6.06431 7.26367 6.06431 7.26367Z" stroke="#616161" stroke-width="1.40625" stroke-miterlimit="10" stroke-linecap="round" stroke-linejoin="round"/>
<path d="M23.9357 7.26367C23.9357 7.26367 26.2316 11.2452 22.9997 13.1128L22.2517 13.544L21.8197 12.7972C19.9518 9.56246 23.9357 7.26367 23.9357 7.26367Z" stroke="#616161" stroke-width="1.40625" stroke-miterlimit="10" stroke-linecap="round" stroke-linejoin="round"/>
<path d="M10.4043 25.3925C10.4043 25.3925 15.0002 25.3925 15.0002 21.6569V20.7949H14.1362C10.4043 20.7949 10.4043 25.3925 10.4043 25.3925Z" stroke="#616161" stroke-width="1.40625" stroke-miterlimit="10" stroke-linecap="round" stroke-linejoin="round"/>
<path d="M19.5959 25.3925C19.5959 25.3925 15 25.3925 15 21.6569V20.7949H15.864C19.5959 20.7949 19.5959 25.3925 19.5959 25.3925Z" stroke="#616161" stroke-width="1.40625" stroke-miterlimit="10" stroke-linecap="round" stroke-linejoin="round"/>
<path d="M3.1521 12.0098C3.1521 12.0098 3.1521 16.6073 6.88405 16.6073H7.74804V15.7453C7.74804 12.0098 3.1521 12.0098 3.1521 12.0098Z" stroke="#616161" stroke-width="1.40625" stroke-miterlimit="10" stroke-linecap="round" stroke-linejoin="round"/>
<path d="M26.8481 12.0098C26.8481 12.0098 26.8481 16.6073 23.1162 16.6073H22.2522V15.7453C22.2522 12.0098 26.8481 12.0098 26.8481 12.0098Z" stroke="#616161" stroke-width="1.40625" stroke-miterlimit="10" stroke-linecap="round" stroke-linejoin="round"/>
<path d="M10.9638 4.60938C10.9638 4.60938 6.97982 6.90857 8.84782 10.1433L9.27981 10.8901L10.0278 10.4589C13.2638 8.59133 10.9638 4.60938 10.9638 4.60938Z" stroke="#616161" stroke-width="1.40625" stroke-miterlimit="10" stroke-linecap="round" stroke-linejoin="round"/>
<path d="M19.0358 4.60938C19.0358 4.60938 23.0198 6.90857 21.1518 10.1433L20.7198 10.8901L19.9718 10.4589C16.7358 8.59133 19.0358 4.60938 19.0358 4.60938Z" stroke="#616161" stroke-width="1.40625" stroke-miterlimit="10" stroke-linecap="round" stroke-linejoin="round"/>
<path d="M5.65552 22.4777C5.65552 22.4777 9.63543 24.7764 11.5034 21.5413L11.9354 20.7949L11.1874 20.3637C7.95152 18.4961 5.65552 22.4777 5.65552 22.4777Z" stroke="#616161" stroke-width="1.40625" stroke-miterlimit="10" stroke-linecap="round" stroke-linejoin="round"/>
<path d="M24.3436 22.4777C24.3436 22.4777 20.3637 24.7764 18.4957 21.5413L18.0637 20.7949L18.8117 20.3637C22.0476 18.4961 24.3436 22.4777 24.3436 22.4777Z" stroke="#616161" stroke-width="1.40625" stroke-miterlimit="10" stroke-linecap="round" stroke-linejoin="round"/>
<path d="M18.0996 13.4766C18.0996 14.3275 17.7076 15.121 17.042 15.6318L16.9053 15.7305H16.9043C16.9035 15.731 16.902 15.7323 16.9004 15.7334C16.8971 15.7356 16.8921 15.7389 16.8857 15.7432C16.8728 15.7519 16.8534 15.7649 16.8291 15.7812C16.7801 15.8142 16.7096 15.8624 16.624 15.9199C16.4529 16.035 16.2209 16.1904 15.9785 16.3535C15.4938 16.6796 14.9661 17.0343 14.7949 17.1494C14.5931 17.2852 14.4443 17.4799 14.3613 17.7021H17.4062C17.7901 17.7021 18.0996 18.0162 18.0996 18.4014C18.0995 18.7864 17.79 19.0996 17.4062 19.0996H13.5938C13.21 19.0996 12.9005 18.7864 12.9004 18.4014V18.1084C12.9005 17.2547 13.3207 16.4617 14.0254 15.9873C14.1966 15.8722 14.7242 15.5166 15.209 15.1904C15.4511 15.0275 15.6825 14.8719 15.8535 14.7568C15.9389 14.6994 16.0096 14.6521 16.0586 14.6191C16.0829 14.6028 16.1022 14.5898 16.1152 14.5811C16.1217 14.5767 16.1275 14.5726 16.1309 14.5703C16.1321 14.5695 16.1331 14.5689 16.1338 14.5684L16.1348 14.5674H16.1357C16.4963 14.3247 16.7119 13.9179 16.7129 13.4795C16.6901 12.8222 16.1556 12.2979 15.501 12.2979C14.8464 12.298 14.312 12.8223 14.2891 13.4795C14.2874 13.8632 13.9785 14.1748 13.5957 14.1748C13.2121 14.1748 12.9024 13.8617 12.9023 13.4766V13.4746C12.9282 12.0493 14.0804 10.9005 15.501 10.9004C16.9215 10.9004 18.0738 12.0492 18.0996 13.4746V13.4766Z" fill="#616161" stroke="#616161" stroke-width="0.2"/>
</svg>
