<svg width="30" height="30" viewBox="0 0 30 30" fill="none" xmlns="http://www.w3.org/2000/svg">
<rect x="0.5" y="0.5" width="29" height="29" rx="14.5" fill="#FFA200" fill-opacity="0.5"/>
<rect x="0.5" y="0.5" width="29" height="29" rx="14.5" stroke="#EA9400"/>
<path d="M3 17.5791C3 17.5791 5.29999 21.5611 8.53193 19.6931L9.2799 19.2623L8.84791 18.5155C6.97992 15.2803 3 17.5791 3 17.5791Z" stroke="#EA9400" stroke-width="1.40625" stroke-miterlimit="10" stroke-linecap="round" stroke-linejoin="round"/>
<path d="M26.9994 17.5791C26.9994 17.5791 24.6994 21.5611 21.4675 19.6931L20.7195 19.2623L21.1515 18.5155C23.0195 15.2803 26.9994 17.5791 26.9994 17.5791Z" stroke="#EA9400" stroke-width="1.40625" stroke-miterlimit="10" stroke-linecap="round" stroke-linejoin="round"/>
<path d="M6.06431 7.26367C6.06431 7.26367 3.76836 11.2452 7.0003 13.1128L7.74828 13.544L8.18027 12.7972C10.0482 9.56246 6.06431 7.26367 6.06431 7.26367Z" stroke="#EA9400" stroke-width="1.40625" stroke-miterlimit="10" stroke-linecap="round" stroke-linejoin="round"/>
<path d="M23.9357 7.26367C23.9357 7.26367 26.2316 11.2452 22.9997 13.1128L22.2517 13.544L21.8197 12.7972C19.9518 9.56246 23.9357 7.26367 23.9357 7.26367Z" stroke="#EA9400" stroke-width="1.40625" stroke-miterlimit="10" stroke-linecap="round" stroke-linejoin="round"/>
<path d="M10.4043 25.3925C10.4043 25.3925 15.0002 25.3925 15.0002 21.6569V20.7949H14.1362C10.4043 20.7949 10.4043 25.3925 10.4043 25.3925Z" stroke="#EA9400" stroke-width="1.40625" stroke-miterlimit="10" stroke-linecap="round" stroke-linejoin="round"/>
<path d="M19.5959 25.3925C19.5959 25.3925 15 25.3925 15 21.6569V20.7949H15.864C19.5959 20.7949 19.5959 25.3925 19.5959 25.3925Z" stroke="#EA9400" stroke-width="1.40625" stroke-miterlimit="10" stroke-linecap="round" stroke-linejoin="round"/>
<path d="M3.1521 12.0098C3.1521 12.0098 3.1521 16.6073 6.88405 16.6073H7.74804V15.7453C7.74804 12.0098 3.1521 12.0098 3.1521 12.0098Z" stroke="#EA9400" stroke-width="1.40625" stroke-miterlimit="10" stroke-linecap="round" stroke-linejoin="round"/>
<path d="M26.8481 12.0098C26.8481 12.0098 26.8481 16.6073 23.1162 16.6073H22.2522V15.7453C22.2522 12.0098 26.8481 12.0098 26.8481 12.0098Z" stroke="#EA9400" stroke-width="1.40625" stroke-miterlimit="10" stroke-linecap="round" stroke-linejoin="round"/>
<path d="M10.9638 4.60938C10.9638 4.60938 6.97982 6.90857 8.84782 10.1433L9.27981 10.8901L10.0278 10.4589C13.2638 8.59133 10.9638 4.60938 10.9638 4.60938Z" stroke="#EA9400" stroke-width="1.40625" stroke-miterlimit="10" stroke-linecap="round" stroke-linejoin="round"/>
<path d="M19.0358 4.60938C19.0358 4.60938 23.0198 6.90857 21.1518 10.1433L20.7198 10.8901L19.9718 10.4589C16.7358 8.59133 19.0358 4.60938 19.0358 4.60938Z" stroke="#EA9400" stroke-width="1.40625" stroke-miterlimit="10" stroke-linecap="round" stroke-linejoin="round"/>
<path d="M5.65552 22.4777C5.65552 22.4777 9.63543 24.7764 11.5034 21.5413L11.9354 20.7949L11.1874 20.3637C7.95152 18.4961 5.65552 22.4777 5.65552 22.4777Z" stroke="#EA9400" stroke-width="1.40625" stroke-miterlimit="10" stroke-linecap="round" stroke-linejoin="round"/>
<path d="M24.3436 22.4777C24.3436 22.4777 20.3637 24.7764 18.4957 21.5413L18.0637 20.7949L18.8117 20.3637C22.0476 18.4961 24.3436 22.4777 24.3436 22.4777Z" stroke="#EA9400" stroke-width="1.40625" stroke-miterlimit="10" stroke-linecap="round" stroke-linejoin="round"/>
<path d="M16.9717 10.9004C17.2578 10.9004 17.5255 11.0457 17.6582 11.2852C17.7919 11.5266 17.762 11.8164 17.584 12.0303L16.1914 13.7041C17.3058 14.1257 18.0996 15.1225 18.0996 16.293C18.0996 17.8506 16.6994 19.0996 15 19.0996C13.3002 19.0996 11.9004 17.8505 11.9004 16.2939C11.9006 15.8961 12.255 15.5908 12.6699 15.5908C13.0845 15.591 13.4382 15.8962 13.4385 16.2939C13.4385 17.0552 14.1289 17.6923 14.999 17.6924C15.8704 17.6924 16.5614 17.0554 16.5615 16.2939C16.5615 15.5323 15.8711 14.8957 15.001 14.8955H14.8203C14.5342 14.8954 14.2676 14.7492 14.1348 14.5098C14.0011 14.2685 14.0303 13.9795 14.208 13.7656L15.4189 12.3076H13.0283C12.6134 12.3076 12.2588 12.0018 12.2588 11.6035C12.259 11.2056 12.6136 10.9004 13.0283 10.9004H16.9717Z" fill="#EA9400" stroke="#EA9400" stroke-width="0.2"/>
</svg>
