<svg width="44" height="45" viewBox="0 0 44 45" fill="none" xmlns="http://www.w3.org/2000/svg">
<circle cx="22" cy="22.25" r="22" fill="black"/>
<path d="M30.6749 15.2459C29.1791 14.5485 27.5595 14.0424 25.8724 13.75C25.8428 13.7504 25.8145 13.7626 25.7937 13.7837C25.5912 14.1549 25.3551 14.6385 25.1976 15.0097C23.4082 14.7399 21.5884 14.7399 19.799 15.0097C19.6415 14.6273 19.4053 14.1549 19.1917 13.7837C19.1804 13.7612 19.1467 13.75 19.1129 13.75C17.4259 14.0424 15.8175 14.5485 14.3104 15.2459C14.2992 15.2459 14.2879 15.2571 14.2767 15.2684C11.2175 19.8459 10.3739 24.2998 10.7901 28.7086C10.7901 28.7311 10.8013 28.7536 10.8238 28.7649C12.8483 30.2495 14.794 31.1492 16.7173 31.7453C16.751 31.7566 16.7848 31.7453 16.796 31.7228C17.2459 31.1043 17.6508 30.4519 17.9995 29.7659C18.022 29.7209 17.9995 29.6759 17.9545 29.6646C17.3134 29.4172 16.706 29.1248 16.1099 28.7874C16.065 28.7649 16.065 28.6974 16.0987 28.6636C16.2224 28.5737 16.3461 28.4724 16.4699 28.3825C16.4924 28.36 16.5261 28.36 16.5486 28.3712C20.4176 30.137 24.5903 30.137 28.4143 28.3712C28.4368 28.36 28.4705 28.36 28.493 28.3825C28.6167 28.4837 28.7404 28.5737 28.8641 28.6749C28.9091 28.7086 28.9091 28.7761 28.8529 28.7986C28.268 29.1473 27.6495 29.4284 27.0084 29.6759C26.9634 29.6871 26.9521 29.7434 26.9634 29.7771C27.3233 30.4632 27.7282 31.1155 28.1668 31.7341C28.2006 31.7453 28.2343 31.7566 28.2681 31.7453C30.2025 31.1492 32.1483 30.2495 34.1728 28.7649C34.1953 28.7536 34.2065 28.7311 34.2065 28.7086C34.7014 23.6137 33.3855 19.1936 30.7199 15.2684C30.7087 15.2571 30.6974 15.2459 30.6749 15.2459ZM18.5843 26.0206C17.4259 26.0206 16.4586 24.9521 16.4586 23.6362C16.4586 22.3203 17.4034 21.2518 18.5843 21.2518C19.7765 21.2518 20.7213 22.3315 20.71 23.6362C20.71 24.9521 19.7653 26.0206 18.5843 26.0206ZM26.4235 26.0206C25.2651 26.0206 24.2978 24.9521 24.2978 23.6362C24.2978 22.3203 25.2426 21.2518 26.4235 21.2518C27.6157 21.2518 28.5605 22.3315 28.5492 23.6362C28.5492 24.9521 27.6157 26.0206 26.4235 26.0206Z" fill="white"/>
</svg>

