<svg width="44" height="44" viewBox="0 0 44 44" fill="none" xmlns="http://www.w3.org/2000/svg">
<circle cx="22" cy="22" r="22" fill="black"/>
<path d="M22.5 8.5C20.6831 8.5 18.884 8.85786 17.2055 9.55314C15.5269 10.2484 14.0017 11.2675 12.717 12.5522C10.1224 15.1468 8.66479 18.6659 8.66479 22.3352C8.66479 28.4503 12.6355 33.6385 18.128 35.4786C18.8198 35.5893 19.0412 35.1604 19.0412 34.7868V32.4487C15.2088 33.2788 14.3926 30.5948 14.3926 30.5948C13.7561 28.9899 12.8568 28.561 12.8568 28.561C11.5978 27.7032 12.9537 27.7309 12.9537 27.7309C14.3372 27.8277 15.0705 29.1559 15.0705 29.1559C16.2741 31.2588 18.3079 30.6363 19.0965 30.3042C19.221 29.4049 19.5807 28.7962 19.9681 28.4503C16.8967 28.1044 13.6731 26.9146 13.6731 21.6434C13.6731 20.1077 14.1989 18.8764 15.0981 17.8941C14.9598 17.5482 14.4756 16.1093 15.2365 14.2416C15.2365 14.2416 16.3987 13.868 19.0412 15.6528C20.1341 15.3484 21.324 15.1962 22.5 15.1962C23.6759 15.1962 24.8658 15.3484 25.9587 15.6528C28.6013 13.868 29.7634 14.2416 29.7634 14.2416C30.5244 16.1093 30.0401 17.5482 29.9018 17.8941C30.8011 18.8764 31.3268 20.1077 31.3268 21.6434C31.3268 26.9284 28.0894 28.0906 25.0041 28.4365C25.5022 28.8654 25.9587 29.7093 25.9587 30.996V34.7868C25.9587 35.1604 26.1801 35.6031 26.8857 35.4786C32.3783 33.6247 36.3351 28.4503 36.3351 22.3352C36.3351 20.5183 35.9773 18.7192 35.282 17.0407C34.5867 15.3621 33.5676 13.8369 32.2829 12.5522C30.9982 11.2675 29.473 10.2484 27.7944 9.55314C26.1159 8.85786 24.3168 8.5 22.5 8.5Z" fill="white"/>
</svg>

