<svg width="45" height="45" viewBox="0 0 45 45" fill="none" xmlns="http://www.w3.org/2000/svg">
<circle cx="22.5" cy="22.5" r="22" fill="black"/>
<path d="M17.67 11H27.33C31.01 11 34 13.99 34 17.67V27.33C34 29.099 33.2973 30.7955 32.0464 32.0464C30.7955 33.2973 29.099 34 27.33 34H17.67C13.99 34 11 31.01 11 27.33V17.67C11 15.901 11.7027 14.2045 12.9536 12.9536C14.2045 11.7027 15.901 11 17.67 11ZM17.44 13.3C16.342 13.3 15.289 13.7362 14.5126 14.5126C13.7362 15.289 13.3 16.342 13.3 17.44V27.56C13.3 29.8485 15.1515 31.7 17.44 31.7H27.56C28.658 31.7 29.711 31.2638 30.4874 30.4874C31.2638 29.711 31.7 28.658 31.7 27.56V17.44C31.7 15.1515 29.8485 13.3 27.56 13.3H17.44ZM28.5375 15.025C28.9187 15.025 29.2844 15.1765 29.554 15.446C29.8236 15.7156 29.975 16.0813 29.975 16.4625C29.975 16.8437 29.8236 17.2094 29.554 17.479C29.2844 17.7485 28.9187 17.9 28.5375 17.9C28.1562 17.9 27.7906 17.7485 27.521 17.479C27.2514 17.2094 27.1 16.8437 27.1 16.4625C27.1 16.0813 27.2514 15.7156 27.521 15.446C27.7906 15.1765 28.1562 15.025 28.5375 15.025ZM22.5 16.75C24.025 16.75 25.4875 17.3558 26.5659 18.4341C27.6442 19.5125 28.25 20.975 28.25 22.5C28.25 24.025 27.6442 25.4875 26.5659 26.5659C25.4875 27.6442 24.025 28.25 22.5 28.25C20.975 28.25 19.5125 27.6442 18.4341 26.5659C17.3558 25.4875 16.75 24.025 16.75 22.5C16.75 20.975 17.3558 19.5125 18.4341 18.4341C19.5125 17.3558 20.975 16.75 22.5 16.75ZM22.5 19.05C21.585 19.05 20.7075 19.4135 20.0605 20.0605C19.4135 20.7075 19.05 21.585 19.05 22.5C19.05 23.415 19.4135 24.2925 20.0605 24.9395C20.7075 25.5865 21.585 25.95 22.5 25.95C23.415 25.95 24.2925 25.5865 24.9395 24.9395C25.5865 24.2925 25.95 23.415 25.95 22.5C25.95 21.585 25.5865 20.7075 24.9395 20.0605C24.2925 19.4135 23.415 19.05 22.5 19.05Z" fill="white"/>
</svg>
