<svg width="21" height="20" viewBox="0 0 21 20" fill="none" xmlns="http://www.w3.org/2000/svg">
<path d="M13.5 19H7.5M13.5 19V10.6C13.5 10.4409 13.4368 10.2883 13.3243 10.1758C13.2117 10.0632 13.0591 10 12.9 10H8.1C7.94087 10 7.78826 10.0632 7.67574 10.1758C7.56321 10.2883 7.5 10.4409 7.5 10.6V19M13.5 19H18.9C19.0591 19 19.2117 18.9368 19.3243 18.8243C19.4368 18.7118 19.5 18.5591 19.5 18.4V16.1C19.5 15.9409 19.4368 15.7883 19.3243 15.6758C19.2117 15.5632 19.0591 15.5 18.9 15.5H14.1C13.9409 15.5 13.7883 15.5632 13.6757 15.6758C13.5632 15.7883 13.5 15.9409 13.5 16.1V19ZM7.5 19V14.1C7.5 13.9409 7.43679 13.7883 7.32426 13.6758C7.21174 13.5632 7.05913 13.5 6.9 13.5H2.1C1.94087 13.5 1.78826 13.5632 1.67574 13.6758C1.56321 13.7883 1.5 13.9409 1.5 14.1V18.4C1.5 18.5591 1.56321 18.7118 1.67574 18.8243C1.78826 18.9368 1.94087 19 2.1 19H7.5ZM9.306 3.11302L10.215 1.18602C10.2395 1.13093 10.2795 1.08413 10.3301 1.05129C10.3807 1.01845 10.4397 1.00098 10.5 1.00098C10.5603 1.00098 10.6193 1.01845 10.6699 1.05129C10.7205 1.08413 10.7605 1.13093 10.785 1.18602L11.695 3.11302L13.727 3.42402C13.988 3.46402 14.092 3.80002 13.903 3.99202L12.433 5.49202L12.78 7.61002C12.824 7.88202 12.552 8.09002 12.318 7.96102L10.5 6.96102L8.682 7.96102C8.449 8.08902 8.176 7.88202 8.22 7.61002L8.567 5.49202L7.097 3.99202C6.907 3.80002 7.012 3.46402 7.272 3.42402L9.306 3.11302Z" stroke="#DC2627" stroke-width="1.5" stroke-linecap="round" stroke-linejoin="round"/>
</svg>
