<svg width="45" height="45" viewBox="0 0 45 45" fill="none" xmlns="http://www.w3.org/2000/svg">
<circle cx="22.6666" cy="22.75" r="22" fill="white"/>
<g clip-path="url(#clip0_1424_3923)">
<path d="M19.9166 25.038C19.9166 23.784 18.8826 22.75 17.6286 22.75C16.3746 22.75 15.3406 23.784 15.3406 25.038C15.3406 25.6448 15.5816 26.2268 16.0107 26.6559C16.4398 27.0849 17.0218 27.326 17.6286 27.326C18.2354 27.326 18.8174 27.0849 19.2464 26.6559C19.6755 26.2268 19.9166 25.6448 19.9166 25.038ZM27.2646 30.252C26.2746 31.242 24.1626 31.594 22.6666 31.594C21.1706 31.594 19.0586 31.242 18.0686 30.252C18.0151 30.1947 17.9503 30.149 17.8784 30.1178C17.8065 30.0866 17.729 30.0705 17.6506 30.0705C17.5722 30.0705 17.4946 30.0866 17.4227 30.1178C17.3508 30.149 17.2861 30.1947 17.2326 30.252C17.1753 30.3055 17.1296 30.3702 17.0984 30.4421C17.0672 30.514 17.051 30.5916 17.051 30.67C17.051 30.7484 17.0672 30.826 17.0984 30.8979C17.1296 30.9698 17.1753 31.0345 17.2326 31.088C18.7946 32.65 21.7866 32.782 22.6666 32.782C23.5466 32.782 26.5386 32.65 28.1006 31.088C28.1579 31.0345 28.2035 30.9698 28.2348 30.8979C28.266 30.826 28.2821 30.7484 28.2821 30.67C28.2821 30.5916 28.266 30.514 28.2348 30.4421C28.2035 30.3702 28.1579 30.3055 28.1006 30.252C27.8806 30.032 27.5066 30.032 27.2646 30.252ZM27.7046 22.75C26.4506 22.75 25.4166 23.784 25.4166 25.038C25.4166 26.292 26.4506 27.326 27.7046 27.326C28.9586 27.326 29.9926 26.292 29.9926 25.038C29.9926 23.784 28.9806 22.75 27.7046 22.75Z" fill="black"/>
<path d="M22.6666 0.75C10.5226 0.75 0.666626 10.606 0.666626 22.75C0.666626 34.894 10.5226 44.75 22.6666 44.75C34.8106 44.75 44.6666 34.894 44.6666 22.75C44.6666 10.606 34.8106 0.75 22.6666 0.75ZM35.4266 25.676C35.4706 25.984 35.4926 26.314 35.4926 26.644C35.4926 31.572 29.7506 35.576 22.6666 35.576C15.5826 35.576 9.84063 31.572 9.84063 26.644C9.84063 26.314 9.86263 25.984 9.90663 25.676C8.78463 25.17 8.01463 24.048 8.01463 22.75C8.01136 22.1191 8.19459 21.5014 8.54129 20.9743C8.88799 20.4473 9.3827 20.0344 9.96329 19.7876C10.5439 19.5408 11.1845 19.471 11.8045 19.5871C12.4246 19.7032 12.9966 19.9999 13.4486 20.44C15.6706 18.834 18.7506 17.822 22.1606 17.712L23.7886 10.034C23.8106 9.88 23.8986 9.748 24.0306 9.682C24.1626 9.594 24.3166 9.572 24.4706 9.594L29.7946 10.738C29.9752 10.3719 30.2504 10.0607 30.5918 9.83683C30.9331 9.61293 31.3282 9.48444 31.7359 9.46469C32.1437 9.44493 32.5493 9.53463 32.9107 9.72448C33.2721 9.91433 33.5761 10.1974 33.7912 10.5444C34.0063 10.8913 34.1247 11.2895 34.134 11.6976C34.1434 12.1058 34.0434 12.509 33.8444 12.8654C33.6454 13.2218 33.3546 13.5185 33.0023 13.7247C32.6499 13.9309 32.2489 14.0391 31.8406 14.038C30.6086 14.038 29.6186 13.07 29.5526 11.86L24.7786 10.848L23.3266 17.712C26.6926 17.822 29.7066 18.856 31.9066 20.44C32.2439 20.118 32.6474 19.8735 33.089 19.7237C33.5307 19.5739 33.9997 19.5224 34.4633 19.5728C34.9268 19.6232 35.3738 19.7743 35.7729 20.0155C36.172 20.2567 36.5136 20.5822 36.7738 20.9692C37.034 21.3562 37.2064 21.7953 37.2791 22.256C37.3518 22.7166 37.323 23.1875 37.1947 23.6358C37.0664 24.0842 36.8417 24.499 36.5363 24.8514C36.2309 25.2038 35.8522 25.4853 35.4266 25.676Z" fill="black"/>
</g>
<defs>
<clipPath id="clip0_1424_3923">
<rect width="44" height="44" fill="white" transform="translate(0.666626 0.75)"/>
</clipPath>
</defs>
</svg>

