<svg width="45" height="45" viewBox="0 0 45 45" fill="none" xmlns="http://www.w3.org/2000/svg">
<circle cx="22.5" cy="22.5" r="22" fill="black"/>
<path fill-rule="evenodd" clip-rule="evenodd" d="M23.6499 33.3882L23.6378 33.3904L23.5596 33.429L23.5376 33.4334L23.5222 33.429L23.4441 33.3904C23.4324 33.3868 23.4236 33.3886 23.4177 33.3959L23.4133 33.407L23.3946 33.8778L23.4001 33.8998L23.4111 33.9141L23.5255 33.9956L23.542 34L23.5552 33.9956L23.6697 33.9141L23.6829 33.8965L23.6873 33.8778L23.6686 33.4081C23.6656 33.3963 23.6594 33.3897 23.6499 33.3882ZM23.9414 33.2639L23.9271 33.2661L23.7236 33.3684L23.7126 33.3794L23.7093 33.3915L23.7291 33.8646L23.7346 33.8778L23.7434 33.8855L23.9645 33.9879C23.9785 33.9915 23.9891 33.9886 23.9964 33.9791L24.0008 33.9637L23.9634 33.2881C23.9598 33.2749 23.9524 33.2669 23.9414 33.2639ZM23.1548 33.2661C23.1499 33.2632 23.1441 33.2622 23.1386 33.2635C23.1331 33.2647 23.1282 33.268 23.1251 33.2727L23.1185 33.2881L23.0811 33.9637C23.0818 33.9769 23.088 33.9857 23.0998 33.9901L23.1163 33.9879L23.3374 33.8855L23.3484 33.8767L23.3528 33.8646L23.3715 33.3915L23.3682 33.3783L23.3572 33.3673L23.1548 33.2661Z" fill="white"/>
<path fill-rule="evenodd" clip-rule="evenodd" d="M22.9973 11C21.2466 11 19.5675 11.6955 18.3295 12.9335C17.0916 14.1714 16.3961 15.8505 16.3961 17.6013V19.6642L15.4059 18.9215C15.2903 18.8348 15.1588 18.7718 15.0188 18.7359C14.8789 18.7 14.7332 18.6921 14.5902 18.7125C14.4471 18.733 14.3095 18.7814 14.1852 18.855C14.0609 18.9286 13.9523 19.026 13.8656 19.1416C13.7789 19.2571 13.7158 19.3887 13.68 19.5286C13.6441 19.6686 13.6362 19.8143 13.6566 19.9573C13.677 20.1003 13.7254 20.2379 13.7991 20.3622C13.8727 20.4866 13.9701 20.5952 14.0856 20.6819L16.1386 22.2222C15.6501 23.5072 14.4586 24.8517 12.5299 26.0102C12.4034 26.0878 12.2938 26.19 12.2074 26.3108C12.1211 26.4315 12.0598 26.5683 12.0272 26.7131C11.9945 26.8579 11.9913 27.0078 12.0175 27.1539C12.0438 27.2999 12.0991 27.4393 12.1801 27.5637C13.4101 29.4087 15.3619 30.8038 17.4963 30.8038C18.2411 30.8038 18.8198 31.2769 19.3931 31.6939C20.1984 32.2781 21.2623 33.0042 22.9973 33.0042C24.7324 33.0042 25.7952 32.2792 26.6005 31.6939C27.1748 31.2758 27.7536 30.8038 28.4984 30.8038C30.6328 30.8038 32.5846 29.4087 33.8146 27.5637C33.8956 27.4393 33.9509 27.2999 33.9772 27.1539C34.0034 27.0078 34.0002 26.8579 33.9675 26.7131C33.9349 26.5683 33.8736 26.4315 33.7873 26.3108C33.7009 26.19 33.5913 26.0878 33.4648 26.0102C31.5361 24.8517 30.3446 23.5072 29.8561 22.2222L31.9091 20.6819C32.1425 20.5068 32.2968 20.2461 32.3381 19.9573C32.3793 19.6684 32.3042 19.375 32.1291 19.1416C31.954 18.9081 31.6934 18.7538 31.4045 18.7125C31.1157 18.6713 30.8222 18.7464 30.5888 18.9215L29.5986 19.6642V17.6013C29.5986 15.8505 28.9031 14.1714 27.6651 12.9335C26.4272 11.6955 24.7481 11 22.9973 11ZM18.5965 17.6013C18.5965 16.4341 19.0602 15.3147 19.8855 14.4894C20.7108 13.6641 21.8302 13.2004 22.9973 13.2004C24.1645 13.2004 25.2839 13.6641 26.1092 14.4894C26.9345 15.3147 27.3982 16.4341 27.3982 17.6013V20.9019C27.3982 23.3202 28.9605 25.5327 31.2907 27.2116C30.426 28.1149 29.4061 28.6034 28.4984 28.6034C26.9823 28.6034 26.0075 29.4043 25.3078 29.9137C24.5993 30.4286 24.0128 30.8038 22.9973 30.8038C21.9819 30.8038 21.3943 30.4286 20.6869 29.9137C19.9883 29.4043 19.0135 28.6034 17.4963 28.6034C16.5875 28.6034 15.5687 28.1149 14.704 27.2116C17.0342 25.5327 18.5965 23.3213 18.5965 20.9019V17.6013Z" fill="white"/>
</svg>
