<svg width="60" height="25" viewBox="0 0 60 25" fill="none" xmlns="http://www.w3.org/2000/svg">
  <path d="M13.3 11.3c0-.9-.7-1.5-2-1.5-1.3 0-2.3.6-2.3 1.7 0 2.6 6.4 1.3 6.4 5.5 0 2.6-2.1 4-4.8 4-2.6 0-4.9-1.2-5-3.7h2.5c.1 1.2.9 1.9 2.5 1.9s2.3-.7 2.3-1.7c0-2.9-6.4-1.4-6.4-5.6 0-2.4 2-3.9 4.7-3.9 2.5 0 4.6 1.1 4.6 3.6h-2.5v-.3zM21.8 8.4v2.8h2.4v2h-2.4v5.3c0 .9.4 1.3 1.3 1.3.4 0 .7-.1 1.1-.2v2c-.6.2-1.2.3-1.8.3-2.1 0-3.1-1-3.1-3.1v-5.6h-2v-2h.5c1.1 0 1.6-.7 1.6-1.7v-1.1h2.4zM29.4 11.2c-.6 0-1.1-.5-1.1-1.1s.5-1.1 1.1-1.1 1.1.5 1.1 1.1-.5 1.1-1.1 1.1zm-1.2 9.6V11.2h2.5v9.6h-2.5zM37.1 11.2c1.3 0 2.3.5 2.9 1.4V8.4h2.5v12.4h-2.5v-1.2c-.6.9-1.6 1.4-2.9 1.4-2.6 0-4.3-2-4.3-4.9s1.7-4.9 4.3-4.9zm.6 2.1c-1.5 0-2.4 1.1-2.4 2.8s.9 2.8 2.4 2.8 2.4-1.1 2.4-2.8-.9-2.8-2.4-2.8zM52.6 16.7h-7c.2 1.3 1 2.2 2.4 2.2 1 0 1.7-.4 2.1-1.2h2.3c-.6 1.9-2.2 3.3-4.4 3.3-2.9 0-4.9-2.1-4.9-5s2-5 4.8-5c2.9 0 4.7 2.1 4.7 5.1v.6zm-2.4-1.7c-.1-1.2-.9-2-2.3-2s-2.1.8-2.3 2h4.6z" fill="#635BFF"/>
</svg>

