<svg width="44" height="45" viewBox="0 0 44 45" fill="none" xmlns="http://www.w3.org/2000/svg">
<circle cx="22" cy="22.5" r="22" fill="black"/>
<path fill-rule="evenodd" clip-rule="evenodd" d="M22.4356 37.6228L22.4225 37.6252L22.3377 37.667L22.3138 37.6718L22.2971 37.667L22.2123 37.6252C22.1996 37.6212 22.19 37.6232 22.1836 37.6312L22.1789 37.6431L22.1586 38.1542L22.1645 38.1781L22.1765 38.1936L22.3007 38.2819L22.3186 38.2867L22.3329 38.2819L22.4571 38.1936L22.4714 38.1745L22.4762 38.1542L22.4559 37.6443C22.4527 37.6316 22.4459 37.6244 22.4356 37.6228ZM22.752 37.4879L22.7365 37.4903L22.5156 37.6013L22.5037 37.6133L22.5001 37.6264L22.5216 38.1399L22.5275 38.1542L22.5371 38.1625L22.7771 38.2736C22.7922 38.2776 22.8038 38.2744 22.8117 38.264L22.8165 38.2473L22.7759 37.5142C22.7719 37.4998 22.764 37.4911 22.752 37.4879ZM21.8982 37.4903C21.893 37.4871 21.8867 37.4861 21.8807 37.4874C21.8747 37.4887 21.8694 37.4923 21.866 37.4974L21.8588 37.5142L21.8182 38.2473C21.819 38.2616 21.8258 38.2712 21.8385 38.276L21.8564 38.2736L22.0965 38.1625L22.1084 38.153L22.1132 38.1399L22.1335 37.6264L22.1299 37.6121L22.118 37.6001L21.8982 37.4903Z" fill="white"/>
<path fill-rule="evenodd" clip-rule="evenodd" d="M31.014 13.1403C31.3091 13.0161 31.6321 12.9732 31.9493 13.0162C32.2666 13.0592 32.5665 13.1864 32.8179 13.3847C33.0693 13.5829 33.263 13.8449 33.3788 14.1434C33.4946 14.4419 33.5282 14.7659 33.4762 15.0818L30.768 31.5087C30.5053 33.0932 28.7667 34.0019 27.3135 33.2126C26.0979 32.5523 24.2924 31.535 22.6684 30.4734C21.8564 29.9421 19.3691 28.2405 19.6748 27.0297C19.9375 25.9945 24.1169 22.1042 26.5051 19.7913C27.4424 18.8826 27.015 18.3584 25.908 19.1942C23.1592 21.2695 18.7458 24.4255 17.2866 25.3138C15.9994 26.0972 15.3283 26.2309 14.5258 26.0972C13.0619 25.8536 11.7042 25.4762 10.5961 25.0165C9.09865 24.3956 9.17149 22.337 10.5949 21.7376L31.014 13.1403Z" fill="white"/>
</svg>

