<svg width="45" height="45" viewBox="0 0 45 45" fill="none" xmlns="http://www.w3.org/2000/svg">
<circle cx="22.6666" cy="22.5" r="22" fill="black"/>
<g clip-path="url(#clip0_521_19816)">
<path d="M22.1666 20.3C20.7566 19.8796 19.2501 19.9142 17.8609 20.3989C16.4717 20.8835 15.2705 21.7936 14.428 22.9997C13.5854 24.2059 13.1444 25.6469 13.1675 27.1181C13.1906 28.5892 13.6766 30.0156 14.5566 31.1948C15.4366 32.374 16.6657 33.2459 18.0694 33.6867C19.4731 34.1275 20.9801 34.1148 22.3762 33.6503C23.7723 33.1859 24.9865 32.2934 25.8465 31.0996C26.7064 29.9058 27.1683 28.4713 27.1666 27V20C28.5 21.3333 30.5 22 33.1666 22V17C30.5 17 28.5 15.3333 27.1666 12H22.1666V27M22.1666 27C22.1666 26.6044 22.0493 26.2178 21.8296 25.8889C21.6098 25.56 21.2974 25.3036 20.932 25.1522C20.5665 25.0009 20.1644 24.9613 19.7764 25.0384C19.3885 25.1156 19.0321 25.3061 18.7524 25.5858C18.4727 25.8655 18.2822 26.2219 18.2051 26.6098C18.1279 26.9978 18.1675 27.3999 18.3189 27.7654C18.4702 28.1308 18.7266 28.4432 19.0555 28.6629C19.3844 28.8827 19.7711 29 20.1666 29C20.6971 29 21.2058 28.7893 21.5808 28.4142C21.9559 28.0391 22.1666 27.5304 22.1666 27Z" stroke="white" stroke-width="2" stroke-linecap="round" stroke-linejoin="round"/>
</g>
<defs>
<clipPath id="clip0_521_19816">
<rect width="24" height="24" fill="white" transform="translate(11.1666 11)"/>
</clipPath>
</defs>
</svg>

