<svg width="45" height="45" viewBox="0 0 45 45" fill="none" xmlns="http://www.w3.org/2000/svg">
<circle cx="22.3334" cy="22.75" r="22" fill="black"/>
<path d="M23.545 34.7597L23.5318 34.7621L23.4466 34.8041L23.4226 34.8089L23.4058 34.8041L23.3206 34.7621C23.3078 34.7581 23.2982 34.7601 23.2918 34.7681L23.287 34.7801L23.2666 35.2937L23.2726 35.3177L23.2846 35.3333L23.4094 35.4221L23.4274 35.4269L23.4418 35.4221L23.5666 35.3333L23.581 35.3141L23.5858 35.2937L23.5654 34.7813C23.5622 34.7685 23.5554 34.7613 23.545 34.7597ZM23.863 34.6241L23.8474 34.6265L23.6254 34.7381L23.6134 34.7501L23.6098 34.7633L23.6314 35.2793L23.6374 35.2937L23.647 35.3021L23.8882 35.4137C23.9034 35.4177 23.915 35.4145 23.923 35.4041L23.9278 35.3873L23.887 34.6505C23.883 34.6361 23.875 34.6273 23.863 34.6241ZM23.005 34.6265C22.9997 34.6233 22.9934 34.6223 22.9873 34.6236C22.9813 34.625 22.976 34.6286 22.9726 34.6337L22.9654 34.6505L22.9246 35.3873C22.9254 35.4017 22.9322 35.4113 22.945 35.4161L22.963 35.4137L23.2042 35.3021L23.2162 35.2925L23.221 35.2793L23.2414 34.7633L23.2378 34.7489L23.2258 34.7369L23.005 34.6265Z" fill="white"/>
<path d="M22.8334 9.25C29.461 9.25 34.8334 14.6224 34.8334 21.25C34.8334 27.8776 29.461 33.25 22.8334 33.25C20.7909 33.2529 18.7818 32.7323 16.9978 31.738L16.6318 31.5244L12.9934 32.5948C12.7954 32.6531 12.5858 32.6599 12.3844 32.6146C12.183 32.5692 11.9966 32.4732 11.8427 32.3355C11.6889 32.1979 11.5728 32.0233 11.5053 31.8282C11.4379 31.6331 11.4214 31.424 11.4574 31.2208L11.4886 31.09L12.559 27.4516C11.4274 25.5811 10.8306 23.4361 10.8334 21.25C10.8334 14.6224 16.2058 9.25 22.8334 9.25ZM22.8334 11.65C21.1145 11.6497 19.4271 12.1109 17.9474 12.9854C16.4676 13.8599 15.2498 15.1156 14.4211 16.6215C13.5924 18.1274 13.1832 19.8282 13.2362 21.5462C13.2892 23.2642 13.8026 24.9365 14.7226 26.3884C14.9602 26.7628 15.0622 27.2236 14.9818 27.6808L14.935 27.8764L14.4058 29.6776L16.207 29.1484C16.7266 28.9948 17.2666 29.0884 17.695 29.3608C18.953 30.1573 20.379 30.6503 21.8604 30.8008C23.3417 30.9513 24.8377 30.7552 26.2302 30.2279C27.6227 29.7006 28.8735 28.8567 29.8836 27.7627C30.8937 26.6688 31.6355 25.3549 32.0504 23.9249C32.4653 22.4949 32.5419 20.988 32.2741 19.5233C32.0063 18.0586 31.4014 16.6763 30.5074 15.4857C29.6133 14.295 28.4545 13.3286 27.1227 12.6629C25.7908 11.9972 24.3223 11.6504 22.8334 11.65ZM19.3558 15.4708C19.4888 15.4139 19.6342 15.3922 19.778 15.408C19.9218 15.4237 20.0591 15.4764 20.1766 15.5608C20.7814 16.0024 21.2614 16.5952 21.6742 17.1736L22.0666 17.7424L22.2502 18.0124C22.3565 18.1671 22.4087 18.3527 22.3988 18.5402C22.3888 18.7277 22.3171 18.9066 22.195 19.0492L22.105 19.1404L20.9962 19.9636C20.9434 20.0027 20.9063 20.0594 20.8916 20.1234C20.8769 20.1874 20.8854 20.2545 20.9158 20.3128C21.1678 20.7688 21.613 21.4492 22.1242 21.9604C22.6366 22.4716 23.3482 22.9468 23.8354 23.2264C23.941 23.2864 24.0682 23.2672 24.1546 23.1892L24.2002 23.1352L24.9214 22.0372C25.0536 21.8606 25.2491 21.7421 25.4669 21.7067C25.6847 21.6714 25.9077 21.7219 26.089 21.8476L26.7406 22.3024C27.3886 22.7644 28.0114 23.2612 28.5046 23.8912C28.5958 24.0096 28.6538 24.1502 28.6726 24.2985C28.6914 24.4468 28.6702 24.5974 28.6114 24.7348C28.1362 25.8436 26.9326 26.788 25.6822 26.7424L25.4914 26.7304L25.2622 26.7088L25.1326 26.692L24.847 26.644C23.7382 26.4352 21.961 25.8064 20.119 23.9656C18.2782 22.1236 17.6494 20.3464 17.4406 19.2376L17.3926 18.952L17.3626 18.7024L17.347 18.4924L17.3422 18.4024C17.2966 17.1496 18.2458 15.946 19.3558 15.4708Z" fill="white"/>
</svg>

