<svg width="45" height="45" viewBox="0 0 45 45" fill="none" xmlns="http://www.w3.org/2000/svg">
<circle cx="22.3334" cy="22.5" r="22" fill="black"/>
<path d="M22.8334 12.8999C23.8594 12.8999 24.9118 12.9263 25.9318 12.9695L27.1366 13.0271L28.2898 13.0955L29.3698 13.1687L30.3562 13.2455C31.4268 13.327 32.4343 13.7836 33.2013 14.535C33.9683 15.2864 34.4455 16.2844 34.549 17.3531L34.597 17.8631L34.687 18.9551C34.771 20.0867 34.8334 21.3203 34.8334 22.4999C34.8334 23.6795 34.771 24.9131 34.687 26.0447L34.597 27.1367L34.549 27.6467C34.4455 28.7156 33.9681 29.7137 33.2009 30.4651C32.4336 31.2166 31.4258 31.6731 30.355 31.7543L29.371 31.8299L28.291 31.9043L27.1366 31.9727L25.9318 32.0303C24.8996 32.075 23.8665 32.0982 22.8334 32.0999C21.8002 32.0982 20.7672 32.075 19.735 32.0303L18.5302 31.9727L17.377 31.9043L16.297 31.8299L15.3106 31.7543C14.24 31.6728 13.2324 31.2162 12.4654 30.4648C11.6984 29.7134 11.2212 28.7154 11.1178 27.6467L11.0698 27.1367L10.9798 26.0447C10.8884 24.8652 10.8395 23.6829 10.8334 22.4999C10.8334 21.3203 10.8958 20.0867 10.9798 18.9551L11.0698 17.8631L11.1178 17.3531C11.2212 16.2846 11.6982 15.2868 12.465 14.5354C13.2317 13.784 14.239 13.3272 15.3094 13.2455L16.2946 13.1687L17.3746 13.0955L18.529 13.0271L19.7338 12.9695C20.7664 12.9248 21.7998 12.9016 22.8334 12.8999ZM22.8334 15.2999C21.8434 15.2999 20.8246 15.3263 19.8334 15.3671L18.6598 15.4235L17.533 15.4895L16.4746 15.5615L15.505 15.6371C14.9952 15.6728 14.5146 15.8881 14.1486 16.2446C13.7825 16.6012 13.5548 17.076 13.5058 17.5847C13.3654 19.0355 13.2334 20.8415 13.2334 22.4999C13.2334 24.1583 13.3654 25.9643 13.5058 27.4151C13.6078 28.4615 14.4382 29.2751 15.505 29.3627L16.4746 29.4371L17.533 29.5091L18.6598 29.5763L19.8334 29.6327C20.8246 29.6735 21.8434 29.6999 22.8334 29.6999C23.8234 29.6999 24.8422 29.6735 25.8334 29.6327L27.007 29.5763L28.1338 29.5103L29.1922 29.4383L30.1618 29.3627C30.6715 29.327 31.1521 29.1117 31.5182 28.7552C31.8842 28.3986 32.112 27.9238 32.161 27.4151C32.3014 25.9643 32.4334 24.1583 32.4334 22.4999C32.4334 20.8415 32.3014 19.0355 32.161 17.5847C32.112 17.076 31.8842 16.6012 31.5182 16.2446C31.1521 15.8881 30.6715 15.6728 30.1618 15.6371L29.1922 15.5627L28.1338 15.4907L27.007 15.4235L25.8334 15.3671C24.8339 15.3242 23.8337 15.3018 22.8334 15.2999ZM20.4334 19.5899C20.4333 19.4726 20.4619 19.3571 20.5166 19.2534C20.5714 19.1496 20.6506 19.0609 20.7475 18.9947C20.8443 18.9286 20.9559 18.8872 21.0724 18.874C21.189 18.8608 21.307 18.8763 21.4162 18.9191L21.5134 18.9671L26.5534 21.8759C26.6537 21.9338 26.7386 22.0151 26.8009 22.1128C26.8631 22.2106 26.9008 22.3219 26.9108 22.4373C26.9209 22.5528 26.9029 22.6689 26.8584 22.7759C26.8139 22.8829 26.7443 22.9776 26.6554 23.0519L26.5534 23.1239L21.5134 26.0339C21.4118 26.0927 21.2974 26.1258 21.1801 26.1303C21.0628 26.1348 20.9462 26.1105 20.8405 26.0597C20.7347 26.0088 20.643 25.9328 20.5733 25.8384C20.5036 25.744 20.458 25.634 20.4406 25.5179L20.4334 25.4099V19.5899Z" fill="white"/>
</svg>

